<svg width="103" height="100" viewBox="0 0 103 100" fill="none" xmlns="http://www.w3.org/2000/svg">
<path d="M18.1024 13.3806L49.8615 4.87082C61.435 1.76972 69.8186 6.82869 73.042 18.8588L81.8792 51.8394C85.1026 63.8695 80.3717 72.4425 68.7982 75.5436L37.0391 84.0534C25.4657 87.1545 17.1122 82.0874 13.8888 70.0574L5.05166 37.0767C1.82821 25.0467 6.52895 16.4817 18.1024 13.3806Z" fill="url(#paint0_linear_1191_173)"/>
<g filter="url(#filter0_f_1191_173)">
<path d="M26.301 23.5591L47.8627 17.7817C55.7201 15.6763 61.35 18.8798 63.4292 26.6394L69.1292 47.9124C71.2084 55.672 67.9346 61.2613 60.0772 63.3666L38.5154 69.1441C30.658 71.2495 25.0487 68.0404 22.9695 60.2809L17.2694 39.0079C15.1902 31.2483 18.4436 25.6645 26.301 23.5591Z" fill="#30AD31" fill-opacity="0.5"/>
</g>
<g filter="url(#filter1_b_1191_173)">
<mask id="path-3-outside-1_1191_173" maskUnits="userSpaceOnUse" x="22.2226" y="19.2158" width="81" height="81" fill="black">
<rect fill="white" x="22.2226" y="19.2158" width="81" height="81"/>
<path d="M80.9651 20.2158H44.2163C30.785 20.2158 23.2226 27.7783 23.2226 41.2095V77.9977C23.2226 91.3501 30.785 98.9914 44.2163 98.9914H81.0045C94.3963 98.9914 101.998 91.3501 101.998 77.9977V41.2095C101.998 27.7783 94.3569 20.2158 80.9651 20.2158Z"/>
</mask>
<path d="M80.9651 20.2158H44.2163C30.785 20.2158 23.2226 27.7783 23.2226 41.2095V77.9977C23.2226 91.3501 30.785 98.9914 44.2163 98.9914H81.0045C94.3963 98.9914 101.998 91.3501 101.998 77.9977V41.2095C101.998 27.7783 94.3569 20.2158 80.9651 20.2158Z" fill="#72DC60" fill-opacity="0.35"/>
<path d="M80.9651 21.2158C81.5174 21.2158 81.9651 20.7681 81.9651 20.2158C81.9651 19.6635 81.5174 19.2158 80.9651 19.2158V21.2158ZM80.9651 19.2158C80.4128 19.2158 79.9651 19.6635 79.9651 20.2158C79.9651 20.7681 80.4128 21.2158 80.9651 21.2158V19.2158ZM80.9651 19.2158H44.2163V21.2158H80.9651V19.2158ZM44.2163 19.2158C37.3163 19.2158 31.783 21.1614 27.9756 24.9688C24.1682 28.7763 22.2226 34.3096 22.2226 41.2095H24.2226C24.2226 34.6782 26.0582 29.7147 29.3898 26.3831C32.7215 23.0514 37.685 21.2158 44.2163 21.2158V19.2158ZM22.2226 41.2095V77.9977H24.2226V41.2095H22.2226ZM22.2226 77.9977C22.2226 84.8596 24.1689 90.3916 27.9746 94.2078C31.7808 98.0245 37.3136 99.9914 44.2163 99.9914V97.9914C37.6877 97.9914 32.7237 96.1376 29.3908 92.7956C26.0575 89.453 24.2226 84.4882 24.2226 77.9977H22.2226ZM44.2163 99.9914H81.0045V97.9914H44.2163V99.9914ZM81.0045 99.9914C87.8881 99.9914 93.4202 98.0241 97.2308 94.2083C101.041 90.3927 102.998 84.861 102.998 77.9977H100.998C100.998 84.4868 99.1542 89.452 95.8156 92.7951C92.4773 96.138 87.5126 97.9914 81.0045 97.9914V99.9914ZM102.998 77.9977V41.2095H100.998V77.9977H102.998ZM102.998 41.2095C102.998 34.3068 101.031 28.7737 97.2092 24.9674C93.3878 21.1617 87.8459 19.2158 80.9651 19.2158V21.2158C87.4761 21.2158 92.4507 23.0511 95.7979 26.3845C99.1444 29.7172 100.998 34.681 100.998 41.2095H102.998Z" fill="url(#paint1_linear_1191_173)" mask="url(#path-3-outside-1_1191_173)"/>
</g>
<g filter="url(#filter2_bd_1191_173)">
<mask id="path-5-inside-2_1191_173" fill="white">
<path d="M77.0261 62.8693H65.84V74.0161C65.84 75.8279 64.3826 77.2853 62.5708 77.2853C60.759 77.2853 59.3016 75.8279 59.3016 74.0161V62.8693H48.1549C46.343 62.8299 44.8857 61.3726 44.8857 59.5608C44.8857 58.6903 45.2402 57.8671 45.831 57.2369C46.4612 56.6461 47.2883 56.2916 48.1549 56.2916H59.3016V45.1842C59.3016 43.3724 60.759 41.915 62.5708 41.915C64.3826 41.915 65.84 43.3724 65.84 45.1842V56.2916H77.0261C78.8379 56.2916 80.2953 57.7489 80.2953 59.5608C80.2953 61.3726 78.8379 62.8299 77.0261 62.8693Z"/>
</mask>
<path d="M77.0261 62.8693H65.84V74.0161C65.84 75.8279 64.3826 77.2853 62.5708 77.2853C60.759 77.2853 59.3016 75.8279 59.3016 74.0161V62.8693H48.1549C46.343 62.8299 44.8857 61.3726 44.8857 59.5608C44.8857 58.6903 45.2402 57.8671 45.831 57.2369C46.4612 56.6461 47.2883 56.2916 48.1549 56.2916H59.3016V45.1842C59.3016 43.3724 60.759 41.915 62.5708 41.915C64.3826 41.915 65.84 43.3724 65.84 45.1842V56.2916H77.0261C78.8379 56.2916 80.2953 57.7489 80.2953 59.5608C80.2953 61.3726 78.8379 62.8299 77.0261 62.8693Z" fill="url(#paint2_linear_1191_173)"/>
<path d="M65.84 62.8693V62.6693H65.64V62.8693H65.84ZM59.3016 62.8693H59.5016V62.6693H59.3016V62.8693ZM48.1549 62.8693L48.1505 63.0693H48.1549V62.8693ZM45.831 57.2369L45.6939 57.0907L45.6851 57.1001L45.831 57.2369ZM59.3016 56.2916V56.4916H59.5016V56.2916H59.3016ZM65.84 56.2916H65.64V56.4916H65.84V56.2916ZM77.0261 62.6693H65.84V63.0693H77.0261V62.6693ZM65.64 62.8693V74.0161H66.04V62.8693H65.64ZM65.64 74.0161C65.64 75.7175 64.2722 77.0853 62.5708 77.0853V77.4853C64.4931 77.4853 66.04 75.9384 66.04 74.0161H65.64ZM62.5708 77.0853C60.8694 77.0853 59.5016 75.7175 59.5016 74.0161H59.1016C59.1016 75.9384 60.6485 77.4853 62.5708 77.4853V77.0853ZM59.5016 74.0161V62.8693H59.1016V74.0161H59.5016ZM59.3016 62.6693H48.1549V63.0693H59.3016V62.6693ZM48.1592 62.6694C46.4536 62.6323 45.0857 61.2613 45.0857 59.5608H44.6857C44.6857 61.4839 46.2325 63.0276 48.1505 63.0693L48.1592 62.6694ZM45.0857 59.5608C45.0857 58.7454 45.4178 57.97 45.9769 57.3737L45.6851 57.1001C45.0625 57.7641 44.6857 58.6352 44.6857 59.5608H45.0857ZM45.9678 57.3828C46.564 56.8238 47.3433 56.4916 48.1549 56.4916V56.0916C47.2334 56.0916 46.3583 56.4683 45.6942 57.091L45.9678 57.3828ZM48.1549 56.4916H59.3016V56.0916H48.1549V56.4916ZM59.5016 56.2916V45.1842H59.1016V56.2916H59.5016ZM59.5016 45.1842C59.5016 43.4828 60.8694 42.115 62.5708 42.115V41.715C60.6485 41.715 59.1016 43.2619 59.1016 45.1842H59.5016ZM62.5708 42.115C64.2722 42.115 65.64 43.4828 65.64 45.1842H66.04C66.04 43.2619 64.4931 41.715 62.5708 41.715V42.115ZM65.64 45.1842V56.2916H66.04V45.1842H65.64ZM65.84 56.4916H77.0261V56.0916H65.84V56.4916ZM77.0261 56.4916C78.7275 56.4916 80.0953 57.8594 80.0953 59.5608H80.4953C80.4953 57.6385 78.9484 56.0916 77.0261 56.0916V56.4916ZM80.0953 59.5608C80.0953 61.2613 78.7274 62.6323 77.0218 62.6694L77.0304 63.0693C78.9485 63.0276 80.4953 61.4839 80.4953 59.5608H80.0953Z" fill="url(#paint3_linear_1191_173)" fill-opacity="0.5" mask="url(#path-5-inside-2_1191_173)"/>
</g>
<defs>
<filter id="filter0_f_1191_173" x="0.655884" y="1.14941" width="85.0848" height="84.6262" filterUnits="userSpaceOnUse" color-interpolation-filters="sRGB">
<feFlood flood-opacity="0" result="BackgroundImageFix"/>
<feBlend mode="normal" in="SourceGraphic" in2="BackgroundImageFix" result="shape"/>
<feGaussianBlur stdDeviation="8" result="effect1_foregroundBlur_1191_173"/>
</filter>
<filter id="filter1_b_1191_173" x="-1.7774" y="-4.78418" width="128.776" height="128.776" filterUnits="userSpaceOnUse" color-interpolation-filters="sRGB">
<feFlood flood-opacity="0" result="BackgroundImageFix"/>
<feGaussianBlur in="BackgroundImageFix" stdDeviation="12"/>
<feComposite in2="SourceAlpha" operator="in" result="effect1_backgroundBlur_1191_173"/>
<feBlend mode="normal" in="SourceGraphic" in2="effect1_backgroundBlur_1191_173" result="shape"/>
</filter>
<filter id="filter2_bd_1191_173" x="29.8857" y="26.915" width="65.4096" height="65.3701" filterUnits="userSpaceOnUse" color-interpolation-filters="sRGB">
<feFlood flood-opacity="0" result="BackgroundImageFix"/>
<feGaussianBlur in="BackgroundImageFix" stdDeviation="7.5"/>
<feComposite in2="SourceAlpha" operator="in" result="effect1_backgroundBlur_1191_173"/>
<feColorMatrix in="SourceAlpha" type="matrix" values="0 0 0 0 0 0 0 0 0 0 0 0 0 0 0 0 0 0 127 0" result="hardAlpha"/>
<feOffset dx="5" dy="5"/>
<feGaussianBlur stdDeviation="5"/>
<feColorMatrix type="matrix" values="0 0 0 0 0.454902 0 0 0 0 0.870588 0 0 0 0 0.376471 0 0 0 0.5 0"/>
<feBlend mode="normal" in2="effect1_backgroundBlur_1191_173" result="effect2_dropShadow_1191_173"/>
<feBlend mode="normal" in="SourceGraphic" in2="effect2_dropShadow_1191_173" result="shape"/>
</filter>
<linearGradient id="paint0_linear_1191_173" x1="0.00187343" y1="18.2307" x2="65.1991" y2="61.1722" gradientUnits="userSpaceOnUse">
<stop stop-color="#9BF763"/>
<stop offset="1" stop-color="#26AB5B"/>
</linearGradient>
<linearGradient id="paint1_linear_1191_173" x1="35.7624" y1="29.3933" x2="86.0128" y2="91.6296" gradientUnits="userSpaceOnUse">
<stop stop-color="white" stop-opacity="0.25"/>
<stop offset="1" stop-color="white" stop-opacity="0"/>
</linearGradient>
<linearGradient id="paint2_linear_1191_173" x1="77.7848" y1="48.3022" x2="38.3419" y2="49.5896" gradientUnits="userSpaceOnUse">
<stop stop-color="white"/>
<stop offset="1" stop-color="white" stop-opacity="0.2"/>
</linearGradient>
<linearGradient id="paint3_linear_1191_173" x1="48.7001" y1="53.78" x2="78.7677" y2="53.9462" gradientUnits="userSpaceOnUse">
<stop stop-color="white"/>
<stop offset="1" stop-color="white" stop-opacity="0"/>
</linearGradient>
</defs>
</svg>
