<svg width="21" height="20" viewBox="0 0 21 20" fill="none" xmlns="http://www.w3.org/2000/svg">
<path d="M17.4348 4.5C17.4348 5.32843 16.7632 6 15.9348 6C15.1064 6 14.4348 5.32843 14.4348 4.5C14.4348 3.67157 15.1064 3 15.9348 3C16.7632 3 17.4348 3.67157 17.4348 4.5Z" fill="white"/>
<path fill-rule="evenodd" clip-rule="evenodd" d="M10.4348 15C13.1962 15 15.4348 12.7614 15.4348 10C15.4348 7.23858 13.1962 5 10.4348 5C7.67336 5 5.43478 7.23858 5.43478 10C5.43478 12.7614 7.67336 15 10.4348 15ZM10.4348 13C12.0916 13 13.4348 11.6569 13.4348 10C13.4348 8.34315 12.0916 7 10.4348 7C8.77793 7 7.43478 8.34315 7.43478 10C7.43478 11.6569 8.77793 13 10.4348 13Z" fill="white"/>
<path fill-rule="evenodd" clip-rule="evenodd" d="M0.434784 9.6C0.434784 6.23969 0.434784 4.55953 1.08874 3.27606C1.66399 2.14708 2.58187 1.2292 3.71084 0.653961C4.99431 0 6.67447 0 10.0348 0H10.8348C14.1951 0 15.8753 0 17.1587 0.653961C18.2877 1.2292 19.2056 2.14708 19.7808 3.27606C20.4348 4.55953 20.4348 6.23969 20.4348 9.6V10.4C20.4348 13.7603 20.4348 15.4405 19.7808 16.7239C19.2056 17.8529 18.2877 18.7708 17.1587 19.346C15.8753 20 14.1951 20 10.8348 20H10.0348C6.67447 20 4.99431 20 3.71084 19.346C2.58187 18.7708 1.66399 17.8529 1.08874 16.7239C0.434784 15.4405 0.434784 13.7603 0.434784 10.4V9.6ZM10.0348 2H10.8348C12.5479 2 13.7125 2.00156 14.6127 2.0751C15.4895 2.14674 15.9379 2.27659 16.2507 2.43597C17.0034 2.81947 17.6153 3.43139 17.9988 4.18404C18.1582 4.49684 18.288 4.94524 18.3597 5.82208C18.4332 6.72225 18.4348 7.88684 18.4348 9.6V10.4C18.4348 12.1132 18.4332 13.2777 18.3597 14.1779C18.288 15.0548 18.1582 15.5032 17.9988 15.816C17.6153 16.5686 17.0034 17.1805 16.2507 17.564C15.9379 17.7234 15.4895 17.8533 14.6127 17.9249C13.7125 17.9984 12.5479 18 10.8348 18H10.0348C8.32162 18 7.15704 17.9984 6.25686 17.9249C5.38003 17.8533 4.93162 17.7234 4.61882 17.564C3.86617 17.1805 3.25425 16.5686 2.87076 15.816C2.71138 15.5032 2.58153 15.0548 2.50989 14.1779C2.43634 13.2777 2.43478 12.1132 2.43478 10.4V9.6C2.43478 7.88684 2.43634 6.72225 2.50989 5.82208C2.58153 4.94524 2.71138 4.49684 2.87076 4.18404C3.25425 3.43139 3.86617 2.81947 4.61882 2.43597C4.93162 2.27659 5.38003 2.14674 6.25686 2.0751C7.15704 2.00156 8.32162 2 10.0348 2Z" fill="white"/>
</svg>
