<svg width="33" height="32" viewBox="0 0 33 32" fill="none" xmlns="http://www.w3.org/2000/svg">
<rect x="2.43478" y="2" width="28" height="28" rx="6" fill="#999999"/>
<rect x="2.43478" y="2" width="28" height="28" rx="6" fill="#999999"/>
<rect x="2.43478" y="2" width="28" height="28" rx="6" fill="#999999"/>
<path d="M23.4348 10.5C23.4348 11.3284 22.7632 12 21.9348 12C21.1064 12 20.4348 11.3284 20.4348 10.5C20.4348 9.67157 21.1064 9 21.9348 9C22.7632 9 23.4348 9.67157 23.4348 10.5Z" fill="white"/>
<path fill-rule="evenodd" clip-rule="evenodd" d="M16.4348 21C19.1962 21 21.4348 18.7614 21.4348 16C21.4348 13.2386 19.1962 11 16.4348 11C13.6734 11 11.4348 13.2386 11.4348 16C11.4348 18.7614 13.6734 21 16.4348 21ZM16.4348 19C18.0916 19 19.4348 17.6569 19.4348 16C19.4348 14.3431 18.0916 13 16.4348 13C14.7779 13 13.4348 14.3431 13.4348 16C13.4348 17.6569 14.7779 19 16.4348 19Z" fill="white"/>
<path fill-rule="evenodd" clip-rule="evenodd" d="M6.43478 15.6C6.43478 12.2397 6.43478 10.5595 7.08874 9.27606C7.66399 8.14708 8.58187 7.2292 9.71084 6.65396C10.9943 6 12.6745 6 16.0348 6H16.8348C20.1951 6 21.8753 6 23.1587 6.65396C24.2877 7.2292 25.2056 8.14708 25.7808 9.27606C26.4348 10.5595 26.4348 12.2397 26.4348 15.6V16.4C26.4348 19.7603 26.4348 21.4405 25.7808 22.7239C25.2056 23.8529 24.2877 24.7708 23.1587 25.346C21.8753 26 20.1951 26 16.8348 26H16.0348C12.6745 26 10.9943 26 9.71084 25.346C8.58187 24.7708 7.66399 23.8529 7.08874 22.7239C6.43478 21.4405 6.43478 19.7603 6.43478 16.4V15.6ZM16.0348 8H16.8348C18.5479 8 19.7125 8.00156 20.6127 8.0751C21.4895 8.14674 21.9379 8.27659 22.2507 8.43597C23.0034 8.81947 23.6153 9.43139 23.9988 10.184C24.1582 10.4968 24.288 10.9452 24.3597 11.8221C24.4332 12.7223 24.4348 13.8868 24.4348 15.6V16.4C24.4348 18.1132 24.4332 19.2777 24.3597 20.1779C24.288 21.0548 24.1582 21.5032 23.9988 21.816C23.6153 22.5686 23.0034 23.1805 22.2507 23.564C21.9379 23.7234 21.4895 23.8533 20.6127 23.9249C19.7125 23.9984 18.5479 24 16.8348 24H16.0348C14.3216 24 13.157 23.9984 12.2569 23.9249C11.38 23.8533 10.9316 23.7234 10.6188 23.564C9.86617 23.1805 9.25425 22.5686 8.87076 21.816C8.71138 21.5032 8.58153 21.0548 8.50989 20.1779C8.43634 19.2777 8.43478 18.1132 8.43478 16.4V15.6C8.43478 13.8868 8.43634 12.7223 8.50989 11.8221C8.58153 10.9452 8.71138 10.4968 8.87076 10.184C9.25425 9.43139 9.86617 8.81947 10.6188 8.43597C10.9316 8.27659 11.38 8.14674 12.2569 8.0751C13.157 8.00156 14.3216 8 16.0348 8Z" fill="white"/>
</svg>
