<svg width="33" height="32" viewBox="0 0 33 32" fill="none" xmlns="http://www.w3.org/2000/svg">
<rect x="2.62317" y="2" width="28" height="28" rx="14" fill="#999999"/>
<path d="M13.2417 9.69215C13.2417 10.6267 12.4317 11.3843 11.4324 11.3843C10.4332 11.3843 9.62317 10.6267 9.62317 9.69215C9.62317 8.7576 10.4332 8 11.4324 8C12.4317 8 13.2417 8.7576 13.2417 9.69215Z" fill="white"/>
<path d="M9.87059 12.6281H12.9634V22H9.87059V12.6281Z" fill="white"/>
<path d="M17.9428 12.6281H14.85V22H17.9428C17.9428 22 17.9428 19.0496 17.9428 17.2049C17.9428 16.0976 18.3208 14.9855 19.8294 14.9855C21.5342 14.9855 21.5239 16.4345 21.516 17.5571C21.5056 19.0244 21.5304 20.5219 21.5304 22H24.6232V17.0537C24.597 13.8954 23.774 12.4401 21.0665 12.4401C19.4586 12.4401 18.4619 13.1701 17.9428 13.8305V12.6281Z" fill="white"/>
</svg>
