<svg width="53" height="53" viewBox="0 0 53 53" fill="none" xmlns="http://www.w3.org/2000/svg">
<rect x="0.0526123" y="0.0527344" width="52.8947" height="52.8947" rx="26.4474" fill="white"/>
<path d="M38.2867 22.6035C38.2867 30.855 30.6522 35.7214 27.2317 36.8851C26.8262 37.0261 26.1738 37.0261 25.7682 36.8851C24.3048 36.3914 22.0656 35.21 20.0027 33.394C17.2169 30.9432 14.7133 27.3287 14.7133 22.6035C14.7133 18.9537 17.6401 16.0093 21.2546 16.0093C23.4056 16.0093 25.3098 17.0495 26.5088 18.6364C27.6901 17.0495 29.5943 16.0093 31.7454 16.0093C32.6798 16.0093 33.5614 16.2032 34.3725 16.5559C36.6822 17.5785 38.2867 19.8882 38.2867 22.6035Z" fill="#FE4C4C"/>
</svg>
