<svg width="106" height="99" viewBox="0 0 106 99" fill="none" xmlns="http://www.w3.org/2000/svg">
<path fill-rule="evenodd" clip-rule="evenodd" d="M55.7612 52.7186C59.0948 40.2777 71.7751 32.866 84.0836 36.164C89.9943 37.7478 95.027 41.64 98.0746 46.9844C101.122 52.3288 101.935 58.6875 100.334 64.6619C97.0006 77.1028 84.3203 84.5145 72.0118 81.2165C59.7033 77.9184 52.4277 65.1595 55.7612 52.7186ZM95.1034 82.709L100.305 89.8453L100.42 89.8762C101.4 91.5933 100.81 93.794 99.1035 94.7915C97.3969 95.7889 95.2197 95.2056 94.2405 93.4884L90.4239 85.6996C90.0437 85.0355 89.9419 84.2446 90.141 83.5015C90.3401 82.7585 90.8237 82.1244 91.485 81.7394C92.7565 81.0111 94.3664 81.4424 95.1034 82.709Z" fill="url(#paint0_linear_1191_298)"/>
<g filter="url(#filter0_f_1191_298)">
<path d="M81.3367 46.4182C74.6306 44.6212 67.7218 48.6595 65.9055 55.4378C64.0893 62.2161 68.0533 69.1678 74.7595 70.9647C81.4657 72.7616 88.3745 68.7234 90.1907 61.945C91.0629 58.69 90.6201 55.2254 88.9597 52.3136C87.2992 49.4017 84.5572 47.2811 81.3367 46.4182Z" fill="#E5532A" fill-opacity="0.5"/>
</g>
<g filter="url(#filter1_b_1191_298)">
<g filter="url(#filter2_b_1191_298)">
<mask id="path-3-outside-1_1191_298" maskUnits="userSpaceOnUse" x="-1.95277" y="-1.21205" width="101.654" height="101.654" fill="black">
<rect fill="white" x="-1.95277" y="-1.21205" width="101.654" height="101.654"/>
<path fill-rule="evenodd" clip-rule="evenodd" d="M86.5152 33.6133C81.5429 15.0562 62.6286 4.00069 44.269 8.92012C35.4524 11.2825 27.9455 17.0882 23.3997 25.06C18.8539 33.0318 17.6415 42.5167 20.0293 51.4282C25.0017 69.9853 43.916 81.0408 62.2755 76.1214C80.6351 71.2019 91.4876 52.1704 86.5152 33.6133ZM27.8331 78.3496L20.0738 88.9944L19.9019 89.0404C18.4414 91.6017 19.3209 94.8842 21.8665 96.3721C24.412 97.86 27.6596 96.9898 29.1201 94.4285L34.8132 82.8105C35.3803 81.82 35.5321 80.6402 35.2351 79.5318C34.9381 78.4234 34.2168 77.4777 33.2304 76.9034C31.3337 75.817 28.9324 76.4604 27.8331 78.3496Z"/>
</mask>
<path fill-rule="evenodd" clip-rule="evenodd" d="M86.5152 33.6133C81.5429 15.0562 62.6286 4.00069 44.269 8.92012C35.4524 11.2825 27.9455 17.0882 23.3997 25.06C18.8539 33.0318 17.6415 42.5167 20.0293 51.4282C25.0017 69.9853 43.916 81.0408 62.2755 76.1214C80.6351 71.2019 91.4876 52.1704 86.5152 33.6133ZM27.8331 78.3496L20.0738 88.9944L19.9019 89.0404C18.4414 91.6017 19.3209 94.8842 21.8665 96.3721C24.412 97.86 27.6596 96.9898 29.1201 94.4285L34.8132 82.8105C35.3803 81.82 35.5321 80.6402 35.2351 79.5318C34.9381 78.4234 34.2168 77.4777 33.2304 76.9034C31.3337 75.817 28.9324 76.4604 27.8331 78.3496Z" fill="#E5532A" fill-opacity="0.3"/>
<path d="M23.3997 25.06L22.531 24.5647L23.3997 25.06ZM20.0738 88.9944L20.8819 89.5834C20.7473 89.7681 20.5534 89.9011 20.3327 89.9603L20.0738 88.9944ZM27.8331 78.3496L28.6974 78.8525C28.6802 78.8822 28.6614 78.9109 28.6412 78.9387L27.8331 78.3496ZM19.9019 89.0404L19.0333 88.5451C19.1656 88.3131 19.3852 88.1436 19.6431 88.0745L19.9019 89.0404ZM21.8665 96.3721L21.3618 97.2354L21.3618 97.2354L21.8665 96.3721ZM29.1201 94.4285L30.0181 94.8685C30.0089 94.8873 29.9991 94.9057 29.9888 94.9239L29.1201 94.4285ZM34.8132 82.8105L33.9152 82.3704C33.9246 82.3512 33.9347 82.3322 33.9453 82.3136L34.8132 82.8105ZM33.2304 76.9034L33.7274 76.0357L33.7335 76.0392L33.2304 76.9034ZM44.0102 7.9542C62.913 2.88921 82.3685 14.2737 87.4812 33.3545L85.5493 33.8721C80.7173 15.8387 62.3442 5.11216 44.5278 9.88605L44.0102 7.9542ZM22.531 24.5647C27.2083 16.3623 34.9341 10.3861 44.0102 7.9542L44.5278 9.88605C35.9708 12.1789 28.6827 17.8142 24.2684 25.5554L22.531 24.5647ZM19.0634 51.687C16.6078 42.5227 17.8539 32.7666 22.531 24.5647L24.2684 25.5554C19.8538 33.297 18.6752 42.5108 20.9952 51.1693L19.0634 51.687ZM62.5344 77.0873C43.6316 82.1523 24.1761 70.7678 19.0634 51.687L20.9952 51.1693C25.8273 69.2028 44.2003 79.9293 62.0167 75.1554L62.5344 77.0873ZM87.4812 33.3545C92.5938 52.4353 81.4371 72.0223 62.5344 77.0873L62.0167 75.1554C79.8331 70.3815 90.3813 51.9055 85.5493 33.8721L87.4812 33.3545ZM19.2657 88.4053L27.025 77.7606L28.6412 78.9387L20.8819 89.5834L19.2657 88.4053ZM19.6431 88.0745L19.815 88.0284L20.3327 89.9603L20.1608 90.0063L19.6431 88.0745ZM21.3618 97.2354C18.3431 95.471 17.3012 91.5825 19.0333 88.5451L20.7706 89.5358C19.5816 91.6209 20.2988 94.2975 22.3711 95.5088L21.3618 97.2354ZM29.9888 94.9239C28.2526 97.9685 24.3878 99.0041 21.3618 97.2354L22.3711 95.5088C24.4362 96.7158 27.0665 96.011 28.2514 93.9331L29.9888 94.9239ZM35.7111 83.2505L30.0181 94.8685L28.2221 93.9885L33.9152 82.3704L35.7111 83.2505ZM36.201 79.273C36.5659 80.6348 36.38 82.0864 35.681 83.3073L33.9453 82.3136C34.3805 81.5535 34.4983 80.6456 34.2692 79.7906L36.201 79.273ZM33.7335 76.0392C34.9494 76.7471 35.8361 77.9112 36.201 79.273L34.2692 79.7906C34.0401 78.9357 33.4841 78.2083 32.7272 77.7676L33.7335 76.0392ZM26.9688 77.8467C28.3446 75.4824 31.3538 74.676 33.7274 76.0357L32.7333 77.7711C31.3136 76.9579 29.5203 77.4384 28.6974 78.8525L26.9688 77.8467Z" fill="url(#paint1_linear_1191_298)" mask="url(#path-3-outside-1_1191_298)"/>
</g>
</g>
<defs>
<filter id="filter0_f_1191_298" x="50.4649" y="30.991" width="55.1633" height="55.4009" filterUnits="userSpaceOnUse" color-interpolation-filters="sRGB">
<feFlood flood-opacity="0" result="BackgroundImageFix"/>
<feBlend mode="normal" in="SourceGraphic" in2="BackgroundImageFix" result="shape"/>
<feGaussianBlur stdDeviation="7.5" result="effect1_foregroundBlur_1191_298"/>
</filter>
<filter id="filter1_b_1191_298" x="-6.16838" y="-17.2495" width="118.89" height="139.348" filterUnits="userSpaceOnUse" color-interpolation-filters="sRGB">
<feFlood flood-opacity="0" result="BackgroundImageFix"/>
<feGaussianBlur in="BackgroundImageFix" stdDeviation="12"/>
<feComposite in2="SourceAlpha" operator="in" result="effect1_backgroundBlur_1191_298"/>
<feBlend mode="normal" in="SourceGraphic" in2="effect1_backgroundBlur_1191_298" result="shape"/>
</filter>
<filter id="filter2_b_1191_298" x="-6.16838" y="-17.2495" width="118.89" height="139.348" filterUnits="userSpaceOnUse" color-interpolation-filters="sRGB">
<feFlood flood-opacity="0" result="BackgroundImageFix"/>
<feGaussianBlur in="BackgroundImageFix" stdDeviation="12"/>
<feComposite in2="SourceAlpha" operator="in" result="effect1_backgroundBlur_1191_298"/>
<feBlend mode="normal" in="SourceGraphic" in2="effect1_backgroundBlur_1191_298" result="shape"/>
</filter>
<linearGradient id="paint0_linear_1191_298" x1="54.8354" y1="56.174" x2="106.8" y2="70.0977" gradientUnits="userSpaceOnUse">
<stop stop-color="#EF463A"/>
<stop offset="1" stop-color="#FCA939"/>
</linearGradient>
<linearGradient id="paint1_linear_1191_298" x1="67.5933" y1="12.3489" x2="19.5132" y2="93.3509" gradientUnits="userSpaceOnUse">
<stop stop-color="white" stop-opacity="0.25"/>
<stop offset="1" stop-color="white" stop-opacity="0"/>
</linearGradient>
</defs>
</svg>
