<svg width="105" height="99" viewBox="0 0 105 99" fill="none" xmlns="http://www.w3.org/2000/svg">
<path d="M53.3702 65.8167C53.0409 66.0069 52.6682 66.1218 52.2827 66.1404L39.8602 66.7402C36.3344 66.9089 33.3014 66.5649 30.5845 65.6926C24.64 63.7866 19.6515 59.8143 16.5415 54.5017L6.29846 37.02C5.11587 35.0026 5.38098 32.426 6.95087 30.6069L21.0156 14.3585C21.8457 13.3848 23.0073 12.7073 24.2768 12.4514L45.3279 8.14912C47.6825 7.6644 50.0604 8.69779 51.2388 10.7141L61.4893 28.2088C64.5975 33.5121 65.6249 39.799 64.385 45.9117C63.8157 48.7158 62.6294 51.5269 60.7621 54.5065L54.1814 65.0269C53.9783 65.3551 53.698 65.624 53.3702 65.8167Z" fill="url(#paint0_linear_1191_312)"/>
<g filter="url(#filter0_f_1191_312)">
<path d="M47.8768 55.4009C47.6535 55.5299 47.4044 55.6143 47.1506 55.64L38.9706 56.4708C36.6489 56.7057 34.67 56.6075 32.9184 56.1734C29.0858 55.2252 25.9579 52.9733 24.1134 49.829L18.0381 39.4824C17.3367 38.2885 17.6068 36.6974 18.7055 35.5226L28.5468 25.0275C29.1281 24.3991 29.9162 23.94 30.7594 23.7357L44.7435 20.3114C46.3078 19.9262 47.8308 20.4718 48.5296 21.6653L54.6093 32.0195C56.4529 35.1582 56.8934 38.978 55.8514 42.7754C55.3732 44.5174 54.4894 46.2868 53.1522 48.1848L48.4389 54.886C48.2933 55.0949 48.0992 55.2704 47.8768 55.4009Z" fill="url(#paint1_linear_1191_312)"/>
</g>
<g filter="url(#filter1_b_1191_312)">
<path d="M60.1435 96.4232C59.6437 96.3464 59.1616 96.1547 58.7465 95.8519L45.3699 86.0934C41.5746 83.3221 38.7173 80.4277 36.6279 77.2462C32.0541 70.2878 30.1928 61.9722 31.3954 53.828L35.3435 27.021C35.7985 23.9271 38.2202 21.4596 41.3631 20.8735L69.4803 15.6735C71.152 15.3513 72.9206 15.6152 74.4497 16.4094L99.8552 29.5168C102.7 30.9792 104.304 34.0455 103.845 37.1349L99.8941 63.9616C98.6973 72.0945 94.5241 79.5145 88.1458 84.8574C85.2193 87.308 81.6474 89.2501 77.2292 90.7987L61.6424 96.277C61.1584 96.4497 60.6438 96.4961 60.1435 96.4232Z" fill="#021A84" fill-opacity="0.3"/>
<path d="M60.0714 96.918L60.0674 96.9174C59.4926 96.829 58.9347 96.6081 58.4518 96.2558L45.0752 86.4973L45.0751 86.4972C41.2421 83.6984 38.339 80.7624 36.2101 77.5209C31.5699 70.4614 29.68 62.0224 30.9008 53.7551L60.0714 96.918ZM60.0714 96.918C60.6494 97.0022 61.2458 96.949 61.8085 96.7486C61.8092 96.7484 61.8098 96.7482 61.8104 96.7479L77.3946 91.2706L60.0714 96.918ZM34.8488 26.9483L30.9008 53.7549L104.34 37.2077C104.83 33.9004 103.113 30.6297 100.084 29.0724C100.084 29.0723 100.084 29.0722 100.084 29.0721L74.6801 15.9657C74.6799 15.9656 74.6796 15.9654 74.6794 15.9653C73.053 15.1208 71.171 14.8389 69.3876 15.1822C69.3869 15.1823 69.3863 15.1824 69.3857 15.1826L41.2722 20.3819L41.2715 20.382C37.9258 21.0059 35.3361 23.6357 34.8488 26.9482C34.8488 26.9482 34.8488 26.9482 34.8488 26.9483ZM100.389 64.0344L104.34 37.2083L77.395 91.2704C81.8571 89.7063 85.485 87.7376 88.4668 85.2408L88.4669 85.2407C94.9379 79.8202 99.1739 72.2903 100.389 64.0344Z" stroke="url(#paint2_linear_1191_312)" stroke-linecap="round" stroke-linejoin="round"/>
</g>
<g filter="url(#filter2_b_1191_312)">
<path d="M61.8128 64.9558C61.0321 64.8398 60.2952 64.4389 59.7827 63.7686L53.1909 55.1386C52.174 53.7993 52.4503 51.9216 53.8116 50.9399C55.1735 49.9543 57.1053 50.2392 58.1268 51.5752L62.8703 57.7819L78.5222 46.4718C79.8882 45.4868 81.8199 45.7718 82.8374 47.1071C83.8582 48.4471 83.5813 50.3288 82.2206 51.3065L64.0979 64.4039C63.4146 64.8984 62.5935 65.0719 61.8128 64.9558Z" fill="url(#paint3_linear_1191_312)"/>
<path d="M53.8703 51.0209L53.8701 51.021C52.5547 51.9696 52.2875 53.7833 53.2705 55.0782L59.8621 63.7078C60.3578 64.3561 61.0708 64.7445 61.8275 64.8569C62.5838 64.9693 63.3783 64.8012 64.0392 64.3229L64.0393 64.3228L82.1621 51.2254L82.1623 51.2253C83.4769 50.2807 83.7448 48.4632 82.7578 47.1677C81.7734 45.8757 79.9029 45.5995 78.5808 46.5529L53.8703 51.0209ZM53.8703 51.0209C55.1882 50.0671 57.0588 50.3429 58.0474 51.6359L62.7909 57.8426L62.85 57.9199L62.9289 57.8629L78.5807 46.5529L53.8703 51.0209Z" stroke="url(#paint4_linear_1191_312)" stroke-opacity="0.5" stroke-width="0.2"/>
</g>
<defs>
<filter id="filter0_f_1191_312" x="1.65131" y="4.18921" width="70.7529" height="68.4058" filterUnits="userSpaceOnUse" color-interpolation-filters="sRGB">
<feFlood flood-opacity="0" result="BackgroundImageFix"/>
<feBlend mode="normal" in="SourceGraphic" in2="BackgroundImageFix" result="shape"/>
<feGaussianBlur stdDeviation="8" result="effect1_foregroundBlur_1191_312"/>
</filter>
<filter id="filter1_b_1191_312" x="6.0387" y="-9.46045" width="122.884" height="130.917" filterUnits="userSpaceOnUse" color-interpolation-filters="sRGB">
<feFlood flood-opacity="0" result="BackgroundImageFix"/>
<feGaussianBlur in="BackgroundImageFix" stdDeviation="12"/>
<feComposite in2="SourceAlpha" operator="in" result="effect1_backgroundBlur_1191_312"/>
<feBlend mode="normal" in="SourceGraphic" in2="effect1_backgroundBlur_1191_312" result="shape"/>
</filter>
<filter id="filter2_b_1191_312" x="37.5779" y="30.8853" width="60.8754" height="49.1052" filterUnits="userSpaceOnUse" color-interpolation-filters="sRGB">
<feFlood flood-opacity="0" result="BackgroundImageFix"/>
<feGaussianBlur in="BackgroundImageFix" stdDeviation="7.5"/>
<feComposite in2="SourceAlpha" operator="in" result="effect1_backgroundBlur_1191_312"/>
<feBlend mode="normal" in="SourceGraphic" in2="effect1_backgroundBlur_1191_312" result="shape"/>
</filter>
<linearGradient id="paint0_linear_1191_312" x1="22.6064" y1="13.0635" x2="53.1402" y2="65.9496" gradientUnits="userSpaceOnUse">
<stop stop-color="#021A84"/>
<stop offset="1" stop-color="#6F7EBE"/>
</linearGradient>
<linearGradient id="paint1_linear_1191_312" x1="29.6396" y1="24.1736" x2="47.7208" y2="55.491" gradientUnits="userSpaceOnUse">
<stop stop-color="#021A84"/>
<stop offset="1" stop-color="#6F7EBE"/>
</linearGradient>
<linearGradient id="paint2_linear_1191_312" x1="47.3786" y1="21.4594" x2="91.4644" y2="84.9261" gradientUnits="userSpaceOnUse">
<stop stop-color="white" stop-opacity="0.25"/>
<stop offset="1" stop-color="white" stop-opacity="0"/>
</linearGradient>
<linearGradient id="paint3_linear_1191_312" x1="81.1842" y1="49.942" x2="48.055" y2="46.3604" gradientUnits="userSpaceOnUse">
<stop stop-color="white"/>
<stop offset="1" stop-color="white" stop-opacity="0.2"/>
</linearGradient>
<linearGradient id="paint4_linear_1191_312" x1="56.3888" y1="49.5293" x2="81.464" y2="53.5813" gradientUnits="userSpaceOnUse">
<stop stop-color="white"/>
<stop offset="1" stop-color="white" stop-opacity="0"/>
</linearGradient>
</defs>
</svg>
