<svg width="29" height="23" viewBox="0 0 29 23" fill="none" xmlns="http://www.w3.org/2000/svg">
<path d="M9.60033 23C6.36533 23 3.34976 22.0591 0.811584 20.4356C2.96658 20.5751 6.76965 20.2411 9.13516 17.9848C5.57666 17.8215 3.97185 15.0923 3.76252 13.926C4.06488 14.0426 5.50689 14.1826 6.32092 13.856C2.22748 12.8296 1.59951 9.23732 1.73906 8.14097C2.50658 8.67749 3.80904 8.8641 4.32072 8.81744C0.506377 6.08823 1.87861 1.98276 2.5531 1.09635C5.29041 4.88867 9.39279 7.01857 14.468 7.13704C14.3723 6.71736 14.3217 6.28042 14.3217 5.83164C14.3217 2.61092 16.925 0 20.1363 0C21.8141 0 23.326 0.712754 24.3873 1.85284C25.5085 1.59011 27.1959 0.975068 28.0208 0.443205C27.605 1.93611 26.3105 3.18149 25.5275 3.64308C25.534 3.65878 25.5211 3.62731 25.5275 3.64308C26.2153 3.53904 28.0764 3.18137 28.8116 2.68256C28.448 3.52125 27.0756 4.91573 25.9493 5.69642C26.1589 14.9381 19.0881 23 9.60033 23Z" fill="#999999"/>
</svg>
