<svg width="55" height="55" viewBox="0 0 55 55" fill="none" xmlns="http://www.w3.org/2000/svg">
<g clip-path="url(#clip0_13_1330)">
<path d="M21.5928 28.2815C25.4698 28.2815 29.2807 28.2815 33.1863 28.2815C33.1047 28.97 33.086 29.6617 32.9295 30.3215C32.6364 31.5594 32.2595 32.7774 31.9256 34.0054C31.8429 34.3066 31.6842 34.4026 31.3668 34.3496C28.6834 33.9017 25.9999 33.9172 23.312 34.332C23.1577 34.3563 22.869 34.2316 22.8194 34.1058C22.091 32.2578 21.746 30.3248 21.5928 28.2815Z" fill="#E5532A"/>
<path d="M33.1698 25.7417C29.2961 25.7417 25.472 25.7417 21.5994 25.7417C21.5719 24.3603 21.8672 23.0496 22.1978 21.7488C22.4557 20.7349 22.4756 20.7371 23.5258 20.8926C26.2512 21.2965 28.971 21.2799 31.6853 20.7967C32.0269 20.736 32.2308 20.7812 32.3069 21.174C32.5813 22.5851 32.881 23.9907 33.1665 25.3996C33.1874 25.5 33.1698 25.6082 33.1698 25.7417Z" fill="#E5532A"/>
<path d="M50.5501 35.2466C50.4564 35.5158 50.3495 35.8854 50.2018 36.2374C47.6043 42.4214 43.2579 46.9107 37.1614 49.6955C36.7305 49.893 36.2709 50.0364 35.8125 50.1633C35.116 50.3563 34.5385 50.0452 34.3269 49.3998C34.1462 48.8503 34.4592 48.2876 35.1248 48.0339C37.1779 47.2516 39.0921 46.2201 40.8411 44.8851C44.1417 42.3651 46.5574 39.1733 48.1057 35.3205C48.2005 35.0833 48.281 34.8373 48.4044 34.6144C48.6579 34.1555 49.1868 33.9392 49.6728 34.0694C50.182 34.2051 50.5412 34.6453 50.5501 35.2466Z" fill="#E5532A"/>
<path d="M5.38071 34.0065C5.84357 34.0208 6.19512 34.3375 6.39459 34.8737C7.22333 37.1068 8.38267 39.1556 9.87153 41.0124C12.3963 44.1624 15.536 46.476 19.2995 47.9368C20.1988 48.2854 20.5635 48.8249 20.3244 49.4648C20.0533 50.193 19.413 50.4071 18.4972 50.0408C11.6998 47.3189 6.94561 42.5571 4.27206 35.7276C3.90508 34.7887 4.36463 34.0098 5.38071 34.0065Z" fill="#E5532A"/>
<path d="M5.24077 20.0189C4.37456 20.0089 3.91391 19.2355 4.25444 18.3319C5.60554 14.7341 7.68619 11.6216 10.4887 8.99579C12.8482 6.78477 15.5393 5.10224 18.5644 3.96363C18.8609 3.8522 19.2157 3.78269 19.521 3.83234C20.0158 3.91288 20.3244 4.28359 20.3795 4.78338C20.4379 5.31407 20.1778 5.70133 19.6918 5.92089C18.808 6.32138 17.8955 6.66892 17.0381 7.12017C11.9908 9.77582 8.47085 13.8007 6.40121 19.1098C6.14995 19.7519 5.7995 20.0255 5.24077 20.0189Z" fill="#E5532A"/>
<path d="M12.1274 28.2881C14.4803 28.2881 16.799 28.2881 19.1474 28.2881C19.2598 30.5664 19.7304 32.7454 20.5272 34.9156C20.2671 34.9995 20.0235 35.0579 19.7976 35.155C18.571 35.6802 17.3423 36.201 16.13 36.757C15.8413 36.8894 15.6958 36.8839 15.4941 36.6301C13.7 34.3551 12.5517 31.812 12.2321 28.9148C12.2101 28.7173 12.1671 28.522 12.1274 28.2881Z" fill="#E5532A"/>
<path d="M34.3798 34.8693C34.8284 32.7421 35.289 30.5542 35.7651 28.2958C37.9019 28.2958 40.1854 28.2958 42.6066 28.2958C42.46 29.1111 42.3641 29.9187 42.1657 30.701C41.6125 32.8778 40.6119 34.8362 39.2001 36.586C38.9709 36.8695 38.8166 36.8894 38.4827 36.7305C37.0997 36.0707 35.6935 35.4595 34.3798 34.8693Z" fill="#E5532A"/>
<path d="M35.5678 3.80146C35.6769 3.83346 35.8742 3.87538 36.0604 3.9482C42.8854 6.64798 47.6671 11.4032 50.3737 18.2371C50.6944 19.0469 50.4652 19.6636 49.7886 19.9141C49.1328 20.1579 48.5719 19.8479 48.2622 19.0701C45.7815 12.8408 41.445 8.47394 35.2019 6.01799C34.5319 5.7543 34.2299 5.28981 34.349 4.73596C34.4702 4.16996 34.9264 3.79153 35.5678 3.80146Z" fill="#E5532A"/>
<path d="M15.0589 17.9855C16.7571 18.7578 18.3991 19.5036 20.007 20.2351C19.6918 21.9993 19.3634 23.8385 19.0251 25.7318C16.81 25.7318 14.4924 25.7318 12.1429 25.7318C12.4029 22.8257 13.3804 20.2263 15.0589 17.9855Z" fill="#E5532A"/>
<path d="M34.6653 20.2428C36.293 19.5025 37.9196 18.7622 39.6123 17.9921C41.2907 20.2108 42.3024 22.7947 42.5713 25.7306C40.2339 25.7306 37.9537 25.7306 35.7056 25.7306C35.3529 23.8738 35.0025 22.0224 34.6653 20.2428Z" fill="#E5532A"/>
<path d="M27.3224 54.0116C25.6263 54.0403 23.8575 52.7318 23.8234 50.5241C23.7936 48.6474 25.4257 47.0619 27.3168 47.0752C29.2245 47.0884 30.8291 48.4752 30.8302 50.545C30.8324 52.7859 28.9942 54.0502 27.3224 54.0116Z" fill="#E5532A"/>
<path d="M27.3312 0.0138079C29.0305 -0.022601 30.8434 1.27819 30.8302 3.4881C30.8181 5.591 29.1859 6.94034 27.3069 6.94916C25.4158 6.95688 23.7848 5.36261 23.8223 3.49141C23.8675 1.27488 25.6418 -0.022601 27.3312 0.0138079Z" fill="#E5532A"/>
<path d="M7.29387 26.9907C7.30379 28.9193 5.78848 30.4661 3.86983 30.4859C1.95007 30.5058 0.341095 28.9601 0.333381 27.0889C0.324565 25.1062 1.86742 23.5385 3.82685 23.5385C5.75212 23.5396 7.28395 25.0643 7.29387 26.9907Z" fill="#E5532A"/>
<path d="M47.3707 27.0204C47.3674 25.0952 48.8915 23.5528 50.8101 23.5395C52.7552 23.5263 54.3323 25.0775 54.3334 27.0039C54.3345 28.9358 52.7663 30.4925 50.8267 30.4859C48.9047 30.4793 47.3751 28.9446 47.3707 27.0204Z" fill="#E5532A"/>
<path d="M31.2038 18.3981C28.5897 18.8063 26.0638 18.8152 23.4707 18.3948C24.4527 16.3316 25.7266 14.5675 27.329 12.9644C28.938 14.5443 30.1943 16.325 31.2038 18.3981Z" fill="#E5532A"/>
<path d="M37.8524 16.1993C36.5508 16.7223 35.2526 17.2518 33.9445 17.7572C33.8431 17.7969 33.5963 17.7086 33.5533 17.6159C32.6177 15.5925 31.39 13.7621 29.8207 11.9703C32.9968 12.5407 35.6031 13.8669 37.8248 15.9621C37.8336 16.0404 37.8435 16.1199 37.8524 16.1993Z" fill="#E5532A"/>
<path d="M16.7394 16.1087C19.1055 13.8856 21.6865 12.5572 24.5959 12.0177C23.3759 13.8933 22.1405 15.7943 20.8038 17.8486C19.5915 17.3301 18.2283 16.7465 16.7394 16.1087Z" fill="#E5532A"/>
<path d="M24.0162 36.7361C26.2677 36.4018 28.4145 36.3985 30.6439 36.7372C29.7435 38.3657 28.6459 39.7558 27.3411 41.061C26.022 39.7834 24.9442 38.3734 24.0162 36.7361Z" fill="#E5532A"/>
<path d="M33.2888 37.1896C34.4856 37.6441 35.7629 38.1285 37.1636 38.6603C34.9727 40.4708 32.6221 41.552 30.0069 42.0176C31.0748 40.4476 32.1383 38.882 33.2888 37.1896Z" fill="#E5532A"/>
<path d="M21.3802 37.1929C22.5175 38.8666 23.5831 40.4344 24.6576 42.0154C22.0601 41.5597 19.7315 40.4664 17.5131 38.6724C18.9171 38.1351 20.1988 37.6441 21.3802 37.1929Z" fill="#E5532A"/>
</g>
<defs>
<clipPath id="clip0_13_1330">
<rect width="54" height="54" fill="white" transform="translate(0.333374 0.0126953)"/>
</clipPath>
</defs>
</svg>
