<svg width="55" height="55" viewBox="0 0 55 55" fill="none" xmlns="http://www.w3.org/2000/svg">
<g clip-path="url(#clip0_13_1291)">
<path d="M54.6665 49.3733C54.49 49.9401 54.3886 50.5451 54.1244 51.0664C52.4609 54.3512 48.3835 55.0111 45.7604 52.4275C43.8306 50.5271 41.9135 48.614 40.0185 46.6786C38.3867 45.0109 37.9587 43.066 38.8084 40.8631C38.8613 40.7267 38.8803 40.4845 38.801 40.4031C37.7135 39.2831 36.607 38.1822 35.4846 37.057C30.0778 41.467 23.9744 43.0586 17.1989 41.633C12.0478 40.549 7.869 37.7846 4.75445 33.5385C-1.56977 24.9141 -0.48649 12.878 7.50228 5.50893C15.1634 -1.55874 27.1999 -1.83476 35.1718 4.82892C38.075 7.25601 40.2014 10.2468 41.5024 13.8171C42.8076 17.4022 43.1056 21.0677 42.4419 24.8189C41.7814 28.5563 40.1813 31.8517 37.7326 34.7673C37.8224 34.8816 37.8879 34.982 37.9703 35.0656C38.95 36.0512 39.9245 37.0411 40.9221 38.0077C41.0468 38.1283 41.3333 38.2118 41.4844 38.1547C43.7281 37.2981 45.6917 37.7327 47.3848 39.409C49.2713 41.2777 51.1324 43.1728 53.0221 45.0384C53.9479 45.9521 54.4319 47.0668 54.6655 48.3178C54.6665 48.669 54.6665 49.0211 54.6665 49.3733ZM36.0088 21.0561C36.068 20.9599 36.1113 20.8837 36.1589 20.8097C37.9016 18.0992 36.2054 14.6409 33.001 14.4326C31.793 14.3543 30.5766 14.3818 29.3644 14.4062C28.4058 14.4252 27.7812 15.065 27.778 16.0189C27.7654 19.3778 27.7654 22.7376 27.778 26.0964C27.7823 27.063 28.446 27.7124 29.413 27.7272C30.5206 27.7441 31.6282 27.7578 32.7347 27.724C34.3263 27.6743 35.5808 26.9922 36.347 25.5645C37.1745 24.0204 36.9928 22.5208 36.0088 21.0561ZM16.661 21.0286C16.6959 21.0318 16.7318 21.0349 16.7667 21.0381C16.7667 21.7065 16.7593 22.3749 16.7677 23.0433C16.7941 24.9511 17.6238 26.3756 19.3295 27.2608C21.9949 28.6451 25.5132 26.8124 25.7563 23.8184C25.9042 22.0047 25.8789 20.1625 25.7626 18.3445C25.6347 16.3362 23.8634 14.6346 21.9336 14.4442C19.6307 14.2169 17.5783 15.4341 17.0351 17.5387C16.7455 18.6597 16.7751 19.8621 16.661 21.0286ZM11.6356 17.5196C11.6504 17.7925 11.6673 17.9638 11.6673 18.1351C11.6695 19.8219 11.6695 21.5098 11.6684 23.1966C11.6673 24.0744 11.3672 24.5185 10.7595 24.5545C10.193 24.5873 9.87069 24.2108 9.7259 23.3468C9.60119 22.6033 8.9787 22.0555 8.23151 22.0312C7.46951 22.0068 6.80898 22.4849 6.65573 23.2326C6.59444 23.5318 6.62403 23.8586 6.65785 24.1685C6.87239 26.1673 8.73351 27.7727 10.769 27.7272C12.8658 27.6806 14.7153 26.0393 14.7766 24.0056C14.858 21.3194 14.8305 18.629 14.8147 15.9407C14.8094 15.0312 14.1858 14.4316 13.2716 14.4072C12.1313 14.3776 10.9888 14.3956 9.84744 14.4051C9.65932 14.4072 9.46168 14.4485 9.28413 14.5151C8.63417 14.7615 8.22833 15.4225 8.29175 16.0951C8.36256 16.8428 8.87724 17.4382 9.62338 17.5069C10.2691 17.5672 10.9212 17.5196 11.6356 17.5196Z" fill="#2ADA66"/>
<path d="M54.6665 49.3733C54.49 49.9401 54.3886 50.5451 54.1244 51.0664C52.4609 54.3512 48.3835 55.0111 45.7604 52.4275C43.8306 50.5271 41.9135 48.614 40.0185 46.6786C38.3867 45.0109 37.9587 43.066 38.8084 40.8631C38.8613 40.7267 38.8803 40.4845 38.801 40.4031C37.7135 39.2831 36.607 38.1822 35.4846 37.057C30.0778 41.467 23.9744 43.0586 17.1989 41.633C12.0478 40.549 7.869 37.7846 4.75445 33.5385C-1.56977 24.9141 -0.48649 12.878 7.50228 5.50893C15.1634 -1.55874 27.1999 -1.83476 35.1718 4.82892C38.075 7.25601 40.2014 10.2468 41.5024 13.8171C42.8076 17.4022 43.1056 21.0677 42.4419 24.8189C41.7814 28.5563 40.1813 31.8517 37.7326 34.7673C37.8224 34.8816 37.8879 34.982 37.9703 35.0656C38.95 36.0512 39.9245 37.0411 40.9221 38.0077C41.0468 38.1283 41.3333 38.2118 41.4844 38.1547C43.7281 37.2981 45.6917 37.7327 47.3848 39.409C49.2713 41.2777 51.1324 43.1728 53.0221 45.0384C53.9479 45.9521 54.4319 47.0668 54.6655 48.3178C54.6665 48.669 54.6665 49.0211 54.6665 49.3733ZM36.0088 21.0561C36.068 20.9599 36.1113 20.8837 36.1589 20.8097C37.9016 18.0992 36.2054 14.6409 33.001 14.4326C31.793 14.3543 30.5766 14.3818 29.3644 14.4062C28.4058 14.4252 27.7812 15.065 27.778 16.0189C27.7654 19.3778 27.7654 22.7376 27.778 26.0964C27.7823 27.063 28.446 27.7124 29.413 27.7272C30.5206 27.7441 31.6282 27.7578 32.7347 27.724C34.3263 27.6743 35.5808 26.9922 36.347 25.5645C37.1745 24.0204 36.9928 22.5208 36.0088 21.0561ZM16.661 21.0286C16.6959 21.0318 16.7318 21.0349 16.7667 21.0381C16.7667 21.7065 16.7593 22.3749 16.7677 23.0433C16.7941 24.9511 17.6238 26.3756 19.3295 27.2608C21.9949 28.6451 25.5132 26.8124 25.7563 23.8184C25.9042 22.0047 25.8789 20.1625 25.7626 18.3445C25.6347 16.3362 23.8634 14.6346 21.9336 14.4442C19.6307 14.2169 17.5783 15.4341 17.0351 17.5387C16.7455 18.6597 16.7751 19.8621 16.661 21.0286ZM11.6356 17.5196C11.6504 17.7925 11.6673 17.9638 11.6673 18.1351C11.6695 19.8219 11.6695 21.5098 11.6684 23.1966C11.6673 24.0744 11.3672 24.5185 10.7595 24.5545C10.193 24.5873 9.87069 24.2108 9.7259 23.3468C9.60119 22.6033 8.9787 22.0555 8.23151 22.0312C7.46951 22.0068 6.80898 22.4849 6.65573 23.2326C6.59444 23.5318 6.62403 23.8586 6.65785 24.1685C6.87239 26.1673 8.73351 27.7727 10.769 27.7272C12.8658 27.6806 14.7153 26.0393 14.7766 24.0056C14.858 21.3194 14.8305 18.629 14.8147 15.9407C14.8094 15.0312 14.1858 14.4316 13.2716 14.4072C12.1313 14.3776 10.9888 14.3956 9.84744 14.4051C9.65932 14.4072 9.46168 14.4485 9.28413 14.5151C8.63417 14.7615 8.22833 15.4225 8.29175 16.0951C8.36256 16.8428 8.87724 17.4382 9.62338 17.5069C10.2691 17.5672 10.9212 17.5196 11.6356 17.5196Z" fill="black" fill-opacity="0.5"/>
<path d="M36.009 21.056C36.9929 22.5208 37.1747 24.0204 36.3461 25.5644C35.5799 26.9921 34.3265 27.6743 32.7338 27.724C31.6272 27.7589 30.5197 27.744 29.4121 27.7271C28.4451 27.7123 27.7813 27.063 27.7771 26.0964C27.7644 22.7376 27.7644 19.3777 27.7771 16.0189C27.7803 15.065 28.406 14.4251 29.3635 14.4061C30.5757 14.3818 31.7921 14.3543 33.0001 14.4325C36.2045 14.6398 37.9018 18.098 36.158 20.8096C36.1115 20.8826 36.0671 20.9587 36.009 21.056ZM30.9561 19.5152C31.6769 19.4813 32.3427 19.494 32.9938 19.4041C33.4651 19.3386 33.6945 18.9621 33.6828 18.4851C33.6723 18.0304 33.4281 17.6666 32.9885 17.6221C32.3227 17.5555 31.6442 17.6042 30.9551 17.6042C30.9561 18.2334 30.9561 18.8235 30.9561 19.5152ZM30.9625 24.5449C31.6125 24.5449 32.2413 24.5851 32.8617 24.5322C33.3457 24.491 33.6511 24.1684 33.6828 23.6587C33.7135 23.1754 33.4704 22.7746 33.0223 22.7175C32.3438 22.6318 31.6463 22.6953 30.9625 22.6953C30.9625 23.333 30.9625 23.922 30.9625 24.5449Z" fill="#AAF0C2"/>
<path d="M16.6611 21.0285C16.7753 19.863 16.7467 18.6595 17.0353 17.5385C17.5785 15.4351 19.6309 14.2178 21.9338 14.4441C23.8636 14.6345 25.6349 16.335 25.7628 18.3444C25.879 20.1623 25.9033 22.0046 25.7564 23.8183C25.5123 26.8133 21.9951 28.645 19.3297 27.2607C17.6239 26.3744 16.7943 24.9499 16.7679 23.0431C16.7584 22.3747 16.65 21.8115 16.65 21.1431C16.65 21.1431 16.65 21.0528 16.6611 21.0285ZM19.9321 21.0422C19.931 21.0422 19.931 21.0422 19.93 21.0422C19.93 21.6916 19.93 22.3409 19.93 22.9902C19.93 23.0251 19.93 23.06 19.931 23.096C19.9617 23.9378 20.5208 24.547 21.2754 24.5618C22.0469 24.5766 22.681 23.9484 22.6915 23.1066C22.7085 21.737 22.7085 20.3675 22.6905 18.999C22.6799 18.1752 22.0765 17.5734 21.3134 17.5703C20.5419 17.5671 19.9575 18.154 19.9363 18.9884C19.9184 19.6727 19.9321 20.3569 19.9321 21.0422Z" fill="#AAF0C2"/>
<path d="M11.6358 17.5195C10.9214 17.5195 10.2682 17.5671 9.62565 17.5068C8.87951 17.438 8.36483 16.8426 8.29402 16.0949C8.22955 15.4223 8.63644 14.7614 9.2864 14.5149C9.4629 14.4483 9.66053 14.406 9.84971 14.405C10.9911 14.3944 12.1336 14.3764 13.2739 14.4071C14.1881 14.4314 14.8116 15.03 14.8169 15.9405C14.8328 18.6288 14.8603 21.3193 14.7789 24.0055C14.7176 26.0392 12.8681 27.6805 10.7713 27.727C8.73578 27.7725 6.87466 26.1671 6.66012 24.1683C6.62736 23.8585 6.59671 23.5317 6.658 23.2324C6.81231 22.4847 7.47178 22.0067 8.23378 22.031C8.98097 22.0553 9.60452 22.6042 9.72817 23.3466C9.87296 24.2106 10.1953 24.5871 10.7618 24.5543C11.3684 24.5194 11.6696 24.0742 11.6707 23.1964C11.6728 21.5096 11.6717 19.8218 11.6696 18.135C11.6686 17.9636 11.6506 17.7923 11.6358 17.5195Z" fill="#AAF0C2"/>
<path d="M30.9561 19.5152C30.9561 18.8235 30.9561 18.2334 30.9561 17.6041C31.6452 17.6041 32.3237 17.5544 32.9895 17.6221C33.4292 17.6665 33.6733 18.0303 33.6839 18.4851C33.6945 18.962 33.4651 19.3396 32.9948 19.4041C32.3427 19.494 31.6769 19.4813 30.9561 19.5152Z" fill="#2ADA66"/>
<path d="M30.9561 19.5152C30.9561 18.8235 30.9561 18.2334 30.9561 17.6041C31.6452 17.6041 32.3237 17.5544 32.9895 17.6221C33.4292 17.6665 33.6733 18.0303 33.6839 18.4851C33.6945 18.962 33.4651 19.3396 32.9948 19.4041C32.3427 19.494 31.6769 19.4813 30.9561 19.5152Z" fill="black" fill-opacity="0.5"/>
<path d="M30.9625 24.5449C30.9625 23.922 30.9625 23.3329 30.9625 22.6952C31.6473 22.6952 32.3438 22.6318 33.0223 22.7174C33.4694 22.7745 33.7124 23.1754 33.6828 23.6587C33.6501 24.1684 33.3457 24.491 32.8617 24.5322C32.2402 24.5851 31.6125 24.5449 30.9625 24.5449Z" fill="#2ADA66"/>
<path d="M30.9625 24.5449C30.9625 23.922 30.9625 23.3329 30.9625 22.6952C31.6473 22.6952 32.3438 22.6318 33.0223 22.7174C33.4694 22.7745 33.7124 23.1754 33.6828 23.6587C33.6501 24.1684 33.3457 24.491 32.8617 24.5322C32.2402 24.5851 31.6125 24.5449 30.9625 24.5449Z" fill="black" fill-opacity="0.5"/>
<path d="M19.9321 21.0423C19.9321 20.3581 19.9173 19.6728 19.9353 18.9885C19.9575 18.1541 20.5419 17.5672 21.3123 17.5703C22.0754 17.5735 22.6789 18.1752 22.6894 18.9991C22.7074 20.3686 22.7063 21.7382 22.6905 23.1066C22.6799 23.9485 22.0469 24.5767 21.2743 24.5618C20.5197 24.547 19.9617 23.9368 19.93 23.0961C19.9289 23.0612 19.9289 23.0263 19.9289 22.9903C19.9289 22.341 19.9289 21.6916 19.9289 21.0423C19.931 21.0423 19.9321 21.0423 19.9321 21.0423Z" fill="#2ADA66"/>
<path d="M19.9321 21.0423C19.9321 20.3581 19.9173 19.6728 19.9353 18.9885C19.9575 18.1541 20.5419 17.5672 21.3123 17.5703C22.0754 17.5735 22.6789 18.1752 22.6894 18.9991C22.7074 20.3686 22.7063 21.7382 22.6905 23.1066C22.6799 23.9485 22.0469 24.5767 21.2743 24.5618C20.5197 24.547 19.9617 23.9368 19.93 23.0961C19.9289 23.0612 19.9289 23.0263 19.9289 22.9903C19.9289 22.341 19.9289 21.6916 19.9289 21.0423C19.931 21.0423 19.9321 21.0423 19.9321 21.0423Z" fill="black" fill-opacity="0.5"/>
</g>
<defs>
<clipPath id="clip0_13_1291">
<rect width="54" height="54" fill="white" transform="translate(0.666687 0.0126953)"/>
</clipPath>
</defs>
</svg>
